#Comment line ignore any data following # character 
#Hierarchical Translation and Rotation (.htr) file 
[Header]	
#Header keywords are followed by a single value 
FileType HTR		#Single word string
DataType HTRS		#Translation followed by rotation and scale data
FileVersion 1		#integer
NumSegments 23		#integer
NumFrames 4		#integer
DataFrameRate 30		#integer, data frame rate in this file
EulerRotationOrder ZYX
CalibrationUnits mm
RotationUnits Degrees
GlobalAxisofGravity Y
BoneLengthAxis Y
ScaleFactor 1.00
[SegmentNames&Hierarchy]
#CHILD	PARENT
MASTER GLOBAL
weapon MASTER
arm_lock_bottom_part1 weapon
arm_lock_bottom_part2 weapon
arm_lock_bottom_part3 weapon
arm_lock_bottom_part4 weapon
arm_lock_top_part1 weapon
arm_lock_top_part2 weapon
arm_lock_top_part3 weapon
front_lower_left_part1 weapon
front_lower_right_part1 weapon
front_top_left_part weapon
front_top_right_part1 weapon
scope_part1 weapon
scope_part2 weapon
front_lower_left_part2 front_lower_left_part1
front_lower_left_part3 front_lower_left_part2
front_lower_right_part2 front_lower_right_part1
front_lower_right_part3 front_lower_right_part2
front_top_left_part2 front_top_left_part
front_top_left_part3 front_top_left_part2
front_top_right_part2 front_top_right_part1
front_top_right_part3 front_top_right_part2
[BasePosition]
#SegmentName Tx, Ty, Tz, Rx, Ry, Rz, BoneLength
MASTER 0.000000 0.000000 0.000000 -90.000000 0.000000 0.000000 10.000000 
weapon 0.000000 0.000000 0.000000 0.000000 0.000000 0.000000 10.000000 
arm_lock_bottom_part1 0.000000 0.000000 0.000000 0.000000 0.000000 0.000000 10.000000 
arm_lock_bottom_part2 0.000000 0.000000 0.000000 0.000000 0.000000 0.000000 10.000000 
arm_lock_bottom_part3 0.000000 0.000000 0.000000 0.000000 0.000000 0.000000 10.000000 
arm_lock_bottom_part4 0.000000 0.000000 0.000000 0.000000 0.000000 0.000000 10.000000 
arm_lock_top_part1 0.000000 0.000000 0.000000 0.000000 0.000000 0.000000 10.000000 
arm_lock_top_part2 0.000000 0.000000 0.000000 0.000000 0.000000 0.000000 10.000000 
arm_lock_top_part3 0.000000 0.000000 0.000000 0.000000 0.000000 0.000000 10.000000 
front_lower_left_part1 0.000000 0.000000 0.000000 0.000000 0.000000 0.000000 10.000000 
front_lower_right_part1 0.000000 0.000000 0.000000 0.000000 0.000000 0.000000 10.000000 
front_top_left_part 0.000000 0.000000 0.000000 0.000000 0.000000 0.000000 10.000000 
front_top_right_part1 0.000000 0.000000 0.000000 0.000000 0.000000 0.000000 10.000000 
scope_part1 0.000000 0.000000 0.000000 0.000000 0.000000 0.000000 10.000000 
scope_part2 0.000000 0.000000 0.000000 0.000000 0.000000 0.000000 10.000000 
front_lower_left_part2 0.000000 0.000000 0.000000 0.000000 0.000000 0.000000 10.000000 
front_lower_left_part3 0.000000 0.000000 0.000000 0.000000 0.000000 0.000000 10.000000 
front_lower_right_part2 0.000000 0.000000 0.000000 0.000000 0.000000 0.000000 10.000000 
front_lower_right_part3 0.000000 0.000000 0.000000 0.000000 0.000000 0.000000 10.000000 
front_top_left_part2 0.000000 0.000000 0.000000 0.000000 0.000000 0.000000 10.000000 
front_top_left_part3 0.000000 0.000000 0.000000 0.000000 0.000000 0.000000 10.000000 
front_top_right_part2 0.000000 0.000000 0.000000 0.000000 0.000000 0.000000 10.000000 
front_top_right_part3 0.000000 0.000000 0.000000 0.000000 0.000000 0.000000 10.000000 
#Beginning of Data. Separated by tabs
#Fr	Tx	Ty	Tz	Rx	Ry	Rz	SF
[MASTER]
15 0.000000 -0.000019 0.000002 0.002458 -0.000000 0.000000 0.000019
16 0.000000 -0.000019 0.000002 0.002458 -0.000000 0.000000 0.000019
17 0.000000 -0.000019 0.000002 0.002458 -0.000000 0.000000 0.000019
18 0.000000 -0.000019 0.000002 0.002458 -0.000000 0.000000 0.000019
[weapon]
15 10.182476 -168.977844 -13.084106 -0.002473 -0.000000 -0.000020 169.789246
16 10.182457 -168.977844 -13.084106 -0.002473 -0.000000 -0.000020 169.789246
17 10.182476 -168.977844 -13.084106 -0.002473 -0.000000 -0.000020 169.789246
18 10.182457 -168.977844 -13.084106 -0.002473 -0.000000 -0.000020 169.789246
[arm_lock_bottom_part1]
15 -48.820000 98.566170 -83.498993 179.999985 0.000004 9.388626 138.096939
16 -48.820000 98.566208 -83.498993 179.999985 0.000004 9.388626 138.096970
17 -48.820000 98.566170 -83.498993 179.999985 0.000004 9.388626 138.096939
18 -48.820000 98.566208 -83.498993 179.999985 0.000004 9.388626 138.096970
[arm_lock_bottom_part2]
15 -49.022766 58.781967 -78.526535 -179.999985 -0.000001 6.576765 109.658417
16 -49.022766 58.782005 -78.526535 -179.999985 -0.000001 6.576765 109.658440
17 -49.022766 58.781967 -78.526535 -179.999985 -0.000001 6.576765 109.658417
18 -49.022766 58.782005 -78.526535 -179.999985 -0.000001 6.576765 109.658440
[arm_lock_bottom_part3]
15 -51.266422 -16.798248 -66.920395 -179.999985 -0.000001 4.326176 85.957932
16 -51.266438 -16.798210 -66.920395 -179.999985 -0.000001 4.326176 85.957939
17 -51.266422 -16.798248 -66.920395 -179.999985 -0.000001 4.326176 85.957932
18 -51.266422 -16.798210 -66.920395 -179.999985 -0.000001 4.326176 85.957924
[arm_lock_bottom_part4]
15 -40.078083 -93.503136 -59.330063 -179.999985 -0.000000 1.322129 117.767326
16 -40.078102 -93.503113 -59.330063 -179.999985 -0.000000 1.322129 117.767326
17 -40.078083 -93.503136 -59.330063 -179.999985 -0.000000 1.322129 117.767326
18 -40.078102 -93.503113 -59.330063 -179.999985 -0.000000 1.322129 117.767326
[arm_lock_top_part1]
15 -47.532558 61.554451 78.379364 0.000000 -0.000000 -9.999999 110.415672
16 -47.532539 61.554489 78.379364 0.000000 -0.000000 -9.999999 110.415680
17 -47.532558 61.554451 78.379364 0.000000 -0.000000 -9.999999 110.415672
18 -47.532558 61.554489 78.379364 0.000000 -0.000000 -9.999999 110.415680
[arm_lock_top_part2]
15 -45.622673 13.709869 63.393555 0.000000 -0.000000 -7.722126 79.297745
16 -45.622673 13.709908 63.393555 0.000000 -0.000000 -7.722126 79.297745
17 -45.622673 13.709869 63.393555 0.000000 -0.000000 -7.722126 79.297745
18 -45.622673 13.709908 63.393555 0.000000 -0.000000 -7.722126 79.297745
[arm_lock_top_part3]
15 -43.788525 -73.747253 72.061615 0.000000 0.000000 -4.533067 112.022179
16 -43.788544 -73.747231 72.061615 0.000000 0.000000 -4.533067 112.022171
17 -43.788525 -73.747253 72.061615 0.000000 0.000000 -4.533067 112.022179
18 -43.788544 -73.747208 72.061615 0.000000 0.000000 -4.533067 112.022163
[front_lower_left_part1]
15 -46.798553 475.070953 -43.538895 0.000000 0.000003 -0.000000 479.351807
16 -46.798534 475.070892 -43.538895 0.000000 0.000003 -0.000000 479.351715
17 -46.798553 475.070953 -43.538895 0.000000 0.000003 -0.000000 479.351807
18 -46.798553 475.070984 -43.538895 0.000000 0.000003 -0.000000 479.351837
[front_lower_right_part1]
15 26.433447 475.070953 -43.538895 0.000000 -0.000000 -0.000000 477.793640
16 26.433447 475.070984 -43.538742 0.000000 -0.000000 -0.000000 477.793671
17 26.433447 475.070953 -43.538895 0.000000 -0.000000 -0.000000 477.793640
18 26.433468 475.070984 -43.538742 0.000000 -0.000000 -0.000000 477.793671
[front_top_left_part]
15 -47.897224 494.788879 7.030945 -0.000000 0.000003 -0.000001 497.151489
16 -47.897205 494.788910 7.030945 -0.000000 0.000003 -0.000001 497.151520
17 -47.897224 494.788879 7.030945 -0.000000 0.000003 -0.000001 497.151489
18 -47.897224 494.788910 7.030945 -0.000000 0.000003 -0.000001 497.151520
[front_top_right_part1]
15 27.532156 494.788879 7.031097 0.000000 -0.000000 -0.000000 495.604187
16 27.532156 494.788910 7.031097 0.000000 -0.000000 -0.000000 495.604218
17 27.532156 494.788879 7.031097 0.000000 -0.000000 -0.000000 495.604187
18 27.532139 494.788910 7.031097 0.000000 -0.000000 -0.000000 495.604218
[scope_part1]
15 -10.754318 87.338905 156.453094 -4.904670 -0.502601 0.043163 179.502960
16 -10.754318 87.338936 156.453094 -4.904729 -0.562554 0.048356 179.502960
17 -10.754318 87.338905 156.453094 -4.904757 -0.624052 0.053622 179.502960
18 -10.754299 87.338936 156.453094 -4.904790 -0.685550 0.058889 179.502960
[scope_part2]
15 -10.754280 82.597305 156.859894 -4.904638 0.467812 -0.040090 177.603470
16 -10.754280 82.597351 156.859894 -4.904688 0.522793 -0.044841 177.603500
17 -10.754280 82.597305 156.859894 -4.904747 0.579592 -0.049749 177.603470
18 -10.754299 82.597351 156.859894 -4.904729 0.637081 -0.054686 177.603500
[front_lower_left_part2]
15 -55.193501 141.618484 32.268444 0.000000 -0.000000 0.531015 155.381378
16 -55.193516 141.618484 32.268444 0.000000 -0.000000 0.601025 155.381378
17 -55.193501 141.618484 32.268444 0.000000 -0.000000 0.673816 155.381378
18 -55.193516 141.618484 32.268444 0.000000 -0.000000 0.749550 155.381378
[front_lower_left_part3]
15 -10.943755 108.509445 -11.124877 33.507835 -15.658511 -14.040149 109.625854
16 -10.943775 108.509369 -11.124877 33.526688 -15.613875 -14.110134 109.625778
17 -10.943755 108.509521 -11.124877 33.546967 -15.565581 -14.185743 109.625931
18 -10.943775 108.509445 -11.125030 33.567833 -15.515823 -14.263582 109.625870
[front_lower_right_part2]
15 55.193707 141.618347 32.268291 0.000000 0.000000 -0.252710 155.381271
16 55.193707 141.618408 32.268291 0.000000 0.000000 -0.285939 155.381348
17 55.193707 141.618347 32.268291 0.000000 0.000000 -0.320562 155.381271
18 55.193707 141.618347 32.268291 0.000000 0.000000 -0.356571 155.381271
[front_lower_right_part3]
15 10.943870 108.509369 -11.124725 33.439648 15.818370 13.788880 109.625778
16 10.943870 108.509445 -11.124725 33.450729 15.792498 13.829675 109.625854
17 10.943870 108.509445 -11.124877 33.462124 15.765860 13.871585 109.625862
18 10.943831 108.509369 -11.125030 33.473778 15.738500 13.914448 109.625801
[front_top_left_part2]
15 -41.621685 137.489853 54.787292 0.000000 -0.000003 0.000001 153.744827
16 -41.501785 137.490158 54.780880 0.000000 -0.000003 0.000001 153.710403
17 -41.377907 137.490463 54.773865 0.000000 -0.000003 0.000001 153.674759
18 -41.250458 137.490692 54.766846 0.000000 -0.000003 0.000001 153.638214
[front_top_left_part3]
15 -28.216438 149.656906 49.959717 -25.883495 -3.634455 -65.979996 160.278915
16 -28.216438 149.656982 49.959717 -25.887634 -3.602742 -65.914391 160.278976
17 -28.216457 149.656906 49.959717 -25.891869 -3.570345 -65.847626 160.278915
18 -28.216476 149.657059 49.959717 -25.896006 -3.537555 -65.779854 160.279053
[front_top_right_part2]
15 41.556587 137.485870 54.894863 0.000000 0.000000 -0.000020 153.762039
16 41.428452 137.485580 54.901882 0.000000 0.000000 -0.000020 153.729691
17 41.296043 137.485352 54.909210 0.000000 0.000000 -0.000020 153.696472
18 41.159859 137.485046 54.916687 0.000000 0.000000 -0.000020 153.662323
[front_top_right_part3]
15 28.216515 149.657059 49.959717 -25.868948 3.744429 66.207161 160.279068
16 28.216591 149.657135 49.959717 -25.871431 3.725812 66.168724 160.279144
17 28.216553 149.657135 49.959564 -25.873955 3.706821 66.129425 160.279099
18 28.216515 149.657135 49.959717 -25.876566 3.687591 66.089653 160.279129
